<svg width="8" height="15" viewBox="0 0 8 15" fill="none" xmlns="http://www.w3.org/2000/svg">
<path d="M2.66667 12.1668H4.66667V14.1668H2.66667V12.1668ZM4 0.833496C7.56667 0.980163 9.12 4.58016 7 7.28016C6.44667 7.94683 5.55333 8.38683 5.11333 8.94683C4.66667 9.50016 4.66667 10.1668 4.66667 10.8335H2.66667C2.66667 9.72016 2.66667 8.78016 3.11333 8.1135C3.55333 7.44683 4.44667 7.0535 5 6.6135C6.61333 5.12016 6.21333 3.00683 4 2.8335C3.46957 2.8335 2.96086 3.04421 2.58579 3.41928C2.21071 3.79436 2 4.30306 2 4.8335H0C0 3.77263 0.421427 2.75521 1.17157 2.00507C1.92172 1.25492 2.93913 0.833496 4 0.833496Z" fill="#03A1FC"/>
</svg>
